<?xml version="1.0" encoding="UTF-8" standalone="no"?>
<svg
   width="16"
   height="16"
   fill="currentColor"
   class="bi bi-hospital-fill"
   viewBox="0 0 16 16"
   version="1.1"
   id="svg4"
   sodipodi:docname="favicon.svg"
   xml:space="preserve"
   inkscape:export-filename="favicon3.svg"
   inkscape:export-xdpi="96"
   inkscape:export-ydpi="96"
   xmlns:inkscape="http://www.inkscape.org/namespaces/inkscape"
   xmlns:sodipodi="http://sodipodi.sourceforge.net/DTD/sodipodi-0.dtd"
   xmlns="http://www.w3.org/2000/svg"
   xmlns:svg="http://www.w3.org/2000/svg"><defs
     id="defs8" /><sodipodi:namedview
     id="namedview6"
     pagecolor="#ffffff"
     bordercolor="#000000"
     borderopacity="0.25"
     inkscape:showpageshadow="2"
     inkscape:pageopacity="0.0"
     inkscape:pagecheckerboard="0"
     inkscape:deskcolor="#d1d1d1"
     showgrid="false" /><g
     inkscape:groupmode="layer"
     id="layer1"
     inkscape:label="Layer 1"><circle
       style="display:inline;fill:#ffffff;fill-opacity:1;stroke-width:1.027;stroke-dasharray:none"
       id="path913"
       cx="8"
       cy="8"
       r="8"
       inkscape:label="White" /><circle
       style="display:inline;fill:#000000;fill-opacity:1;stroke-width:1.02232"
       id="path3627"
       cx="8"
       cy="8"
       r="7.107914"
       inkscape:label="Black" /><g
       id="g266"
       transform="matrix(0.02354339,0,0,0.02354339,1.511076,2.085747)"
       inkscape:label="Kuma"
       style="display:inline;fill:#ffffff;fill-opacity:1;stroke:none;stroke-width:0;stroke-dasharray:none"><path
         style="display:inline;fill:#ffffff;fill-opacity:1;stroke:none;stroke-width:0;stroke-linecap:round;stroke-linejoin:round;stroke-miterlimit:4;stroke-dasharray:none;stroke-opacity:0.29902"
         d="m 455.52908,539.46662 c -8.10874,-12.9608 0.94494,-41.5244 -66.38288,-80.36439 -34.22312,-19.74259 -81.49665,-24.47534 -120.53575,-31.95833 -54.439,-10.43484 -109.5481,-14.65141 -160.54658,-9.81397 -26.221486,2.48723 -82.103017,25.54496 -93.16656,31.52879 66.474135,67.31957 112.34683,104.25479 174.25203,130.96059 38.10652,-6.33664 124.19144,-19.09383 266.37974,-40.35269 z"
         id="path55984"
         sodipodi:nodetypes="csscccc" /><path
         id="path1576"
         style="display:inline;opacity:1;fill:#ffffff;fill-opacity:1;stroke:none;stroke-width:0;stroke-miterlimit:4;stroke-dasharray:none;stroke-opacity:1"
         d="m 416.91406,70.140348 a 41.091484,47.491486 0 0 0 -37.06836,27.884765 193.82857,193.82857 0 0 1 59.08594,59.431647 41.091484,47.491486 0 0 0 19.07422,-39.82422 41.091484,47.491486 0 0 0 -41.0918,-47.492192 z" /><path
         id="path1472"
         style="display:inline;opacity:1;fill:#ffffff;fill-opacity:1;stroke:none;stroke-width:0;stroke-miterlimit:4;stroke-dasharray:none;stroke-opacity:1"
         d="m 178.28516,40.077848 a 51.041306,46.469879 0 0 0 -51.04102,46.46875 51.041306,46.469879 0 0 0 15.45117,33.210942 193.82857,193.82857 0 0 1 84.56055,-46.261724 51.041306,46.469879 0 0 0 -48.9707,-33.417968 z" /><circle
         style="display:inline;opacity:1;fill:#ffffff;fill-opacity:1;fill-rule:evenodd;stroke:none;stroke-width:0;stroke-miterlimit:4;stroke-dasharray:none;stroke-opacity:0"
         id="path135"
         cx="275.20001"
         cy="255.03015"
         r="193.82857" /></g></g></svg>
